<svg width="25" height="25" viewBox="0 0 25 25" fill="none" xmlns="http://www.w3.org/2000/svg">
<path d="M7.68639 15.407C7.69056 15.4174 7.78848 15.6872 7.84369 15.8195C8.1509 16.5457 8.59591 17.2054 9.1541 17.7622C10.0135 18.6246 11.1112 19.2103 12.306 19.4439C13.5009 19.6776 14.7383 19.5487 15.8593 19.0737C17.3262 18.4533 18.4936 17.2856 19.1135 15.8185C19.4329 15.0657 19.5963 14.256 19.5937 13.4383C19.5937 12.6122 19.4343 11.8102 19.1135 11.056C18.8064 10.3304 18.3617 9.671 17.8041 9.11432C17.2366 8.54578 16.5624 8.09485 15.8202 7.7874C15.078 7.47994 14.2824 7.32201 13.4791 7.32266C12.6504 7.32106 11.8296 7.48429 11.0645 7.80287C10.4708 8.05391 9.46452 8.70078 8.87494 9.30912L8.87285 9.3112V4.27787H17.3281C17.6354 4.27474 17.6354 3.84349 17.6354 3.70495C17.6354 3.56224 17.6354 3.13307 17.327 3.12891H8.18431C8.07775 3.12863 7.97542 3.17055 7.89968 3.24551C7.82395 3.32046 7.78097 3.42235 7.78014 3.52891V10.6133C7.78014 10.8435 8.06452 11.0081 8.3291 11.0654C8.84577 11.1737 8.96452 11.0102 9.0916 10.8341L9.10723 10.8122C9.30202 10.5258 9.90618 9.91849 9.91035 9.91328C10.3755 9.44694 10.9287 9.07761 11.5377 8.82674C12.1468 8.57586 12.7996 8.44842 13.4583 8.45182C14.115 8.44916 14.7657 8.57698 15.3726 8.82786C15.9795 9.07874 16.5305 9.44769 16.9937 9.91328C17.4596 10.3745 17.8291 10.9238 18.0809 11.5291C18.3327 12.1344 18.4617 12.7837 18.4604 13.4393C18.4604 14.7727 17.9416 16.0258 17.002 16.9654C16.0545 17.9019 14.7759 18.4271 13.4437 18.4268C12.5555 18.4301 11.6836 18.1894 10.9229 17.731L10.927 13.4216C10.927 12.8466 11.1749 12.2227 11.5937 11.7508C11.8245 11.4869 12.1093 11.2757 12.4289 11.1314C12.7484 10.9871 13.0952 10.913 13.4458 10.9143C14.1406 10.9143 14.7906 11.1789 15.2729 11.6581C15.752 12.132 16.0166 12.7664 16.0166 13.4404C16.0198 13.7793 15.9553 14.1155 15.8268 14.4291C15.6983 14.7428 15.5085 15.0276 15.2684 15.2669C15.0284 15.5062 14.7429 15.6951 14.4289 15.8225C14.1148 15.95 13.7784 16.0134 13.4395 16.0091C13.1604 16.0091 12.6551 15.8872 12.6343 15.881C12.3416 15.7935 12.2176 16.1987 12.177 16.3341C12.0197 16.8466 12.2572 16.9487 12.3041 16.9633C12.7708 17.107 13.076 17.1341 13.4749 17.1341C14.456 17.133 15.3965 16.7427 16.09 16.0488C16.7835 15.3549 17.1733 14.4141 17.1739 13.4331C17.1739 11.4091 15.5156 9.76016 13.4781 9.76016C12.4899 9.75573 11.5402 10.1426 10.8364 10.8362C10.1656 11.4945 9.78119 12.3758 9.78119 13.2497V13.2716C9.77702 13.381 9.77702 15.9622 9.77598 16.8112L9.77077 16.8049C9.38744 16.381 9.00931 15.7331 8.75723 15.0674C8.65618 14.807 8.43535 14.8529 8.13119 14.9466C7.99889 14.9883 7.59577 15.1122 7.68431 15.4029L7.68639 15.407V15.407ZM12.0322 14.3945C12.0343 14.5174 12.1479 14.6268 12.2145 14.6924L12.2364 14.7122C12.352 14.8268 12.4624 14.8831 12.5645 14.8831C12.6489 14.8831 12.6999 14.8445 12.7187 14.8268C12.7708 14.7789 13.3479 14.1935 13.4041 14.1372L14.0479 14.781C14.1083 14.8477 14.1729 14.882 14.2479 14.8831C14.352 14.8831 14.4635 14.8227 14.5812 14.7018C14.8593 14.4185 14.7208 14.2643 14.6531 14.1914L13.9989 13.5352L14.6812 12.8497C14.8312 12.6883 14.6989 12.5164 14.5656 12.3852C14.3749 12.1935 14.1916 12.1456 14.0718 12.2529L13.3947 12.932L12.7104 12.2466C12.6745 12.2122 12.6267 12.1932 12.577 12.1935C12.4864 12.1935 12.3781 12.256 12.2562 12.3779C12.0458 12.5872 11.9999 12.7331 12.1093 12.8497L12.7937 13.5331L12.1135 14.2154C12.0637 14.262 12.0345 14.3264 12.0322 14.3945V14.3945ZM13.526 5.13307C12.4291 5.13307 11.2645 5.35287 10.4093 5.72266C10.365 5.73881 10.3264 5.76769 10.2984 5.80568C10.2704 5.84367 10.2543 5.88907 10.252 5.9362C10.2406 6.03307 10.2656 6.1612 10.3312 6.32891C10.3843 6.46537 10.526 6.82682 10.7989 6.72057C11.6701 6.38767 12.5934 6.21203 13.526 6.20182C14.526 6.20182 15.4968 6.39766 16.4093 6.78307C17.1343 7.09141 17.8197 7.53412 18.5635 8.17995C18.6097 8.22451 18.6711 8.24983 18.7354 8.25078C18.8791 8.25078 19.0176 8.10807 19.1374 7.9737C19.3364 7.75078 19.4718 7.56537 19.2781 7.38099C18.5648 6.7072 17.7336 6.17047 16.826 5.79766C15.7819 5.35639 14.6595 5.13035 13.526 5.13307V5.13307ZM19.4301 18.6602C19.2978 18.5289 19.1854 18.4529 19.0864 18.4227C19.042 18.4078 18.9944 18.4057 18.949 18.4166C18.9035 18.4274 18.8619 18.4508 18.8291 18.4841L18.7635 18.5487C18.0782 19.2368 17.2635 19.7826 16.3664 20.1546C15.4694 20.5267 14.5076 20.7176 13.5364 20.7164C12.565 20.7167 11.6032 20.5254 10.7059 20.1534C9.80858 19.7815 8.99347 19.2361 8.30723 18.5487C7.62616 17.8805 7.08724 17.0815 6.72285 16.1997C6.5023 15.6648 6.34092 15.1073 6.2416 14.5372C6.23744 14.5185 6.23639 14.5049 6.23223 14.4945C6.18639 14.2529 5.96452 14.2352 5.64473 14.2841C5.51244 14.3039 5.10619 14.3654 5.14577 14.657L5.14785 14.6633C5.42759 16.4315 6.26223 18.0651 7.53118 19.3279C8.30369 20.104 9.22009 20.7221 10.2291 21.1477C11.2752 21.5912 12.4002 21.8186 13.5364 21.8164C14.6717 21.8188 15.7958 21.5909 16.8406 21.1466C17.8801 20.7079 18.8214 20.0658 19.6093 19.2581C19.6958 19.1643 19.7697 18.9997 19.4301 18.6602" fill="#FFBE0B"/>
</svg>
