<?xml version="1.0" encoding="utf-8"?>
<!-- Generator: Adobe Illustrator 25.4.1, SVG Export Plug-In . SVG Version: 6.00 Build 0)  -->
<svg version="1.1" id="Layer_1" xmlns="http://www.w3.org/2000/svg" xmlns:xlink="http://www.w3.org/1999/xlink" x="0px" y="0px"
	 viewBox="0 0 32 32" style="enable-background:new 0 0 32 32;" xml:space="preserve">
<style type="text/css">
	.st0{fill:#FFFFFF;}
	.st1{fill:#FEBE12;}
	.st2{fill:none;stroke:#000000;stroke-width:2;stroke-miterlimit:10;}
</style>
<path class="st0" d="M20.95,27.29c-0.02-0.11-6.67-7.69-7.04-7.84s-11.4-8.59-11.4-8.59s1.98-3.72,3.48-6.14
	c0.12-0.19,3.22-2.67,7.03-3.32c3.56-0.61,7.85,0.63,8.07,0.44c0.44-0.39,3.7,5.23,5.48,3.7c0.13-0.11,2.06,3.35,2,3.48
	c-0.66,1.36,1.81,3.79,1.26,7.62c-0.51,3.57-2.89,6.52-2.89,6.66C26.94,23.59,20.95,27.29,20.95,27.29z"/>
<path class="st1" d="M3.67,8.24c0,0,9.03-2.05,10.75,5.34s9.12,12.68,9.12,12.68l-9.1,1.98l-8.29-3.17l-3.63-7.92L3.67,8.24z"/>
<circle class="st2" cx="15.78" cy="14.71" r="13.6"/>
</svg>
