<svg width="25" height="25" viewBox="0 0 25 25" fill="none" xmlns="http://www.w3.org/2000/svg">
<path d="M21.8197 8.6513C21.8092 7.86237 21.6615 7.08128 21.3833 6.34297C21.142 5.72021 20.7734 5.15463 20.3012 4.68238C19.8289 4.21012 19.2633 3.84156 18.6406 3.60026C17.9118 3.32667 17.1418 3.17874 16.3635 3.16276C15.3614 3.11797 15.0437 3.10547 12.5 3.10547C9.9562 3.10547 9.63016 3.10547 8.63537 3.16276C7.85741 3.17886 7.08781 3.32679 6.35933 3.60026C5.73647 3.8414 5.17081 4.20989 4.69853 4.68217C4.22625 5.15445 3.85775 5.72011 3.61662 6.34297C3.34248 7.07123 3.19487 7.841 3.18016 8.61901C3.13537 9.62214 3.12183 9.93984 3.12183 12.4836C3.12183 15.0273 3.12183 15.3523 3.18016 16.3482C3.19578 17.1273 3.34266 17.8961 3.61662 18.6263C3.85816 19.249 4.22693 19.8144 4.69936 20.2865C5.1718 20.7586 5.73752 21.1269 6.36037 21.368C7.08686 21.6525 7.85659 21.8111 8.63641 21.8367C9.63954 21.8815 9.95724 21.8951 12.501 21.8951C15.0447 21.8951 15.3708 21.8951 16.3656 21.8367C17.1439 21.8214 17.9139 21.6738 18.6427 21.4003C19.2653 21.1587 19.8307 20.79 20.3029 20.3178C20.7751 19.8456 21.1438 19.2801 21.3854 18.6576C21.6593 17.9284 21.8062 17.1596 21.8218 16.3794C21.8666 15.3773 21.8802 15.0596 21.8802 12.5148C21.8781 9.97109 21.8781 9.64818 21.8197 8.6513ZM12.4937 17.294C9.83329 17.294 7.67808 15.1388 7.67808 12.4784C7.67808 9.81797 9.83329 7.66276 12.4937 7.66276C13.7709 7.66276 14.9958 8.17012 15.8989 9.07322C16.802 9.97633 17.3093 11.2012 17.3093 12.4784C17.3093 13.7556 16.802 14.9804 15.8989 15.8835C14.9958 16.7867 13.7709 17.294 12.4937 17.294ZM17.501 8.60755C17.3535 8.60769 17.2074 8.57874 17.0711 8.52235C16.9348 8.46597 16.811 8.38326 16.7067 8.27896C16.6024 8.17466 16.5197 8.05082 16.4633 7.91452C16.4069 7.77822 16.3779 7.63214 16.3781 7.48464C16.3781 7.33724 16.4071 7.19129 16.4635 7.05511C16.5199 6.91894 16.6026 6.79521 16.7068 6.69098C16.811 6.58676 16.9348 6.50408 17.071 6.44768C17.2071 6.39127 17.3531 6.36224 17.5005 6.36224C17.6479 6.36224 17.7938 6.39127 17.93 6.44768C18.0662 6.50408 18.1899 6.58676 18.2941 6.69098C18.3984 6.79521 18.481 6.91894 18.5374 7.05511C18.5938 7.19129 18.6229 7.33724 18.6229 7.48464C18.6229 8.10547 18.1208 8.60755 17.501 8.60755Z" fill="#FFBE0B"/>
<path d="M12.4938 15.6059C14.2215 15.6059 15.622 14.2054 15.622 12.4777C15.622 10.7501 14.2215 9.34961 12.4938 9.34961C10.7662 9.34961 9.36572 10.7501 9.36572 12.4777C9.36572 14.2054 10.7662 15.6059 12.4938 15.6059Z" fill="#FFBE0B"/>
</svg>
